  0
SECTION
  2
HEADER
  9
$ACADVER
  1
AC1009
  9
$FILLMODE
 70
 0
  9
$SPLFRAME
 70
 1
  9
$EXTMIN
 10
0
 20
0
 30
0.0
  9
$EXTMAX
 10
1058.33
 20
1058.33
 30
0.0
  0
ENDSEC
  0
SECTION
  2
TABLES
  0
TABLE
  2
LAYER
 70
1
  0
LAYER
  2
0
 70
     0
 62
     7
  6
CONTINUOUS
  0
ENDTAB
  0
ENDSEC
  0
SECTION
  2
ENTITIES
  0
LINE
  8
0
 62
     0
 10
0.0950846
 20
114.558
 30
0.0
 11
404.908
 21
114.558
 31
0.0
  0
LINE
  8
0
 62
     0
 10
404.908
 20
114.558
 30
0.0
 11
404.908
 21
0.257693
 31
0.0
  0
LINE
  8
0
 62
     0
 10
404.908
 20
0.257693
 30
0.0
 11
0.0950846
 21
0.257693
 31
0.0
  0
LINE
  8
0
 62
     0
 10
0.0950846
 20
0.257693
 30
0.0
 11
0.0950846
 21
114.558
 31
0.0
  0
LINE
  8
0
 62
     0
 10
126.445
 20
16.7845
 30
0.0
 11
126.445
 21
12.0826
 31
0.0
  0
LINE
  8
0
 62
     0
 10
126.445
 20
12.0826
 30
0.0
 11
124.919
 21
12.0826
 31
0.0
  0
LINE
  8
0
 62
     0
 10
124.919
 20
12.0826
 30
0.0
 11
124.919
 21
15.3142
 31
0.0
  0
LINE
  8
0
 62
     0
 10
124.919
 20
15.3142
 30
0.0
 11
118.17
 21
15.3142
 31
0.0
  0
LINE
  8
0
 62
     0
 10
118.17
 20
15.3142
 30
0.0
 11
118.17
 21
12.0826
 31
0.0
  0
LINE
  8
0
 62
     0
 10
118.17
 20
12.0826
 30
0.0
 11
117.344
 21
12.0826
 31
0.0
  0
LINE
  8
0
 62
     0
 10
117.344
 20
12.0826
 30
0.0
 11
117.344
 21
9.28384
 31
0.0
  0
LINE
  8
0
 62
     0
 10
117.344
 20
9.28384
 30
0.0
 11
118.17
 21
9.28384
 31
0.0
  0
LINE
  8
0
 62
     0
 10
118.17
 20
9.28384
 30
0.0
 11
118.17
 21
3.01377
 31
0.0
  0
LINE
  8
0
 62
     0
 10
118.17
 20
3.01377
 30
0.0
 11
119.895
 21
3.01377
 31
0.0
  0
LINE
  8
0
 62
     0
 10
119.895
 20
3.01377
 30
0.0
 11
119.895
 21
1.81488
 31
0.0
  0
LINE
  8
0
 62
     0
 10
119.895
 20
1.81488
 30
0.0
 11
123.194
 21
1.81488
 31
0.0
  0
LINE
  8
0
 62
     0
 10
123.194
 20
1.81488
 30
0.0
 11
123.194
 21
3.01377
 31
0.0
  0
LINE
  8
0
 62
     0
 10
123.194
 20
3.01377
 30
0.0
 11
124.919
 21
3.01377
 31
0.0
  0
LINE
  8
0
 62
     0
 10
124.919
 20
3.01377
 30
0.0
 11
124.919
 21
7.48411
 31
0.0
  0
LINE
  8
0
 62
     0
 10
124.919
 20
7.48411
 30
0.0
 11
126.445
 21
7.48411
 31
0.0
  0
LINE
  8
0
 62
     0
 10
126.445
 20
7.48411
 30
0.0
 11
126.445
 21
2.78364
 31
0.0
  0
LINE
  8
0
 62
     0
 10
126.445
 20
2.78364
 30
0.0
 11
140.444
 21
2.78364
 31
0.0
  0
LINE
  8
0
 62
     0
 10
140.444
 20
2.78364
 30
0.0
 11
140.444
 21
7.48411
 31
0.0
  0
LINE
  8
0
 62
     0
 10
140.444
 20
7.48411
 30
0.0
 11
141.97
 21
7.48411
 31
0.0
  0
LINE
  8
0
 62
     0
 10
141.97
 20
7.48411
 30
0.0
 11
141.97
 21
3.01377
 31
0.0
  0
LINE
  8
0
 62
     0
 10
141.97
 20
3.01377
 30
0.0
 11
143.695
 21
3.01377
 31
0.0
  0
LINE
  8
0
 62
     0
 10
143.695
 20
3.01377
 30
0.0
 11
143.695
 21
1.81488
 31
0.0
  0
LINE
  8
0
 62
     0
 10
143.695
 20
1.81488
 30
0.0
 11
146.994
 21
1.81488
 31
0.0
  0
LINE
  8
0
 62
     0
 10
146.994
 20
1.81488
 30
0.0
 11
146.994
 21
3.01377
 31
0.0
  0
LINE
  8
0
 62
     0
 10
146.994
 20
3.01377
 30
0.0
 11
148.719
 21
3.01377
 31
0.0
  0
LINE
  8
0
 62
     0
 10
148.719
 20
3.01377
 30
0.0
 11
148.719
 21
9.28384
 31
0.0
  0
LINE
  8
0
 62
     0
 10
148.719
 20
9.28384
 30
0.0
 11
149.545
 21
9.28384
 31
0.0
  0
LINE
  8
0
 62
     0
 10
149.545
 20
9.28384
 30
0.0
 11
149.545
 21
12.0826
 31
0.0
  0
LINE
  8
0
 62
     0
 10
149.545
 20
12.0826
 30
0.0
 11
148.719
 21
12.0826
 31
0.0
  0
LINE
  8
0
 62
     0
 10
148.719
 20
12.0826
 30
0.0
 11
148.719
 21
15.3142
 31
0.0
  0
LINE
  8
0
 62
     0
 10
148.719
 20
15.3142
 30
0.0
 11
141.97
 21
15.3142
 31
0.0
  0
LINE
  8
0
 62
     0
 10
141.97
 20
15.3142
 30
0.0
 11
141.97
 21
12.0826
 31
0.0
  0
LINE
  8
0
 62
     0
 10
141.97
 20
12.0826
 30
0.0
 11
140.444
 21
12.0826
 31
0.0
  0
LINE
  8
0
 62
     0
 10
140.444
 20
12.0826
 30
0.0
 11
140.444
 21
16.7845
 31
0.0
  0
LINE
  8
0
 62
     0
 10
140.444
 20
16.7845
 30
0.0
 11
126.445
 21
16.7845
 31
0.0
  0
LINE
  8
0
 62
     0
 10
247.887
 20
16.7845
 30
0.0
 11
247.887
 21
12.0826
 31
0.0
  0
LINE
  8
0
 62
     0
 10
247.887
 20
12.0826
 30
0.0
 11
246.363
 21
12.0826
 31
0.0
  0
LINE
  8
0
 62
     0
 10
246.363
 20
12.0826
 30
0.0
 11
246.363
 21
15.3142
 31
0.0
  0
LINE
  8
0
 62
     0
 10
246.363
 20
15.3142
 30
0.0
 11
239.612
 21
15.3142
 31
0.0
  0
LINE
  8
0
 62
     0
 10
239.612
 20
15.3142
 30
0.0
 11
239.612
 21
12.0826
 31
0.0
  0
LINE
  8
0
 62
     0
 10
239.612
 20
12.0826
 30
0.0
 11
238.788
 21
12.0826
 31
0.0
  0
LINE
  8
0
 62
     0
 10
238.788
 20
12.0826
 30
0.0
 11
238.788
 21
9.28384
 31
0.0
  0
LINE
  8
0
 62
     0
 10
238.788
 20
9.28384
 30
0.0
 11
239.612
 21
9.28384
 31
0.0
  0
LINE
  8
0
 62
     0
 10
239.612
 20
9.28384
 30
0.0
 11
239.612
 21
3.01377
 31
0.0
  0
LINE
  8
0
 62
     0
 10
239.612
 20
3.01377
 30
0.0
 11
241.337
 21
3.01377
 31
0.0
  0
LINE
  8
0
 62
     0
 10
241.337
 20
3.01377
 30
0.0
 11
241.337
 21
1.81488
 31
0.0
  0
LINE
  8
0
 62
     0
 10
241.337
 20
1.81488
 30
0.0
 11
244.638
 21
1.81488
 31
0.0
  0
LINE
  8
0
 62
     0
 10
244.638
 20
1.81488
 30
0.0
 11
244.638
 21
3.01377
 31
0.0
  0
LINE
  8
0
 62
     0
 10
244.638
 20
3.01377
 30
0.0
 11
246.363
 21
3.01377
 31
0.0
  0
LINE
  8
0
 62
     0
 10
246.363
 20
3.01377
 30
0.0
 11
246.363
 21
7.48411
 31
0.0
  0
LINE
  8
0
 62
     0
 10
246.363
 20
7.48411
 30
0.0
 11
247.887
 21
7.48411
 31
0.0
  0
LINE
  8
0
 62
     0
 10
247.887
 20
7.48411
 30
0.0
 11
247.887
 21
2.78364
 31
0.0
  0
LINE
  8
0
 62
     0
 10
247.887
 20
2.78364
 30
0.0
 11
261.888
 21
2.78364
 31
0.0
  0
LINE
  8
0
 62
     0
 10
261.888
 20
2.78364
 30
0.0
 11
261.888
 21
7.48411
 31
0.0
  0
LINE
  8
0
 62
     0
 10
261.888
 20
7.48411
 30
0.0
 11
263.412
 21
7.48411
 31
0.0
  0
LINE
  8
0
 62
     0
 10
263.412
 20
7.48411
 30
0.0
 11
263.412
 21
3.01377
 31
0.0
  0
LINE
  8
0
 62
     0
 10
263.412
 20
3.01377
 30
0.0
 11
265.137
 21
3.01377
 31
0.0
  0
LINE
  8
0
 62
     0
 10
265.137
 20
3.01377
 30
0.0
 11
265.137
 21
1.81488
 31
0.0
  0
LINE
  8
0
 62
     0
 10
265.137
 20
1.81488
 30
0.0
 11
268.438
 21
1.81488
 31
0.0
  0
LINE
  8
0
 62
     0
 10
268.438
 20
1.81488
 30
0.0
 11
268.438
 21
3.01377
 31
0.0
  0
LINE
  8
0
 62
     0
 10
268.438
 20
3.01377
 30
0.0
 11
270.163
 21
3.01377
 31
0.0
  0
LINE
  8
0
 62
     0
 10
270.163
 20
3.01377
 30
0.0
 11
270.163
 21
9.28384
 31
0.0
  0
LINE
  8
0
 62
     0
 10
270.163
 20
9.28384
 30
0.0
 11
270.987
 21
9.28384
 31
0.0
  0
LINE
  8
0
 62
     0
 10
270.987
 20
9.28384
 30
0.0
 11
270.987
 21
12.0826
 31
0.0
  0
LINE
  8
0
 62
     0
 10
270.987
 20
12.0826
 30
0.0
 11
270.163
 21
12.0826
 31
0.0
  0
LINE
  8
0
 62
     0
 10
270.163
 20
12.0826
 30
0.0
 11
270.163
 21
15.3142
 31
0.0
  0
LINE
  8
0
 62
     0
 10
270.163
 20
15.3142
 30
0.0
 11
263.412
 21
15.3142
 31
0.0
  0
LINE
  8
0
 62
     0
 10
263.412
 20
15.3142
 30
0.0
 11
263.412
 21
12.0826
 31
0.0
  0
LINE
  8
0
 62
     0
 10
263.412
 20
12.0826
 30
0.0
 11
261.888
 21
12.0826
 31
0.0
  0
LINE
  8
0
 62
     0
 10
261.888
 20
12.0826
 30
0.0
 11
261.888
 21
16.7845
 31
0.0
  0
LINE
  8
0
 62
     0
 10
261.888
 20
16.7845
 30
0.0
 11
247.887
 21
16.7845
 31
0.0
  0
LINE
  8
0
 62
     0
 10
2.61965
 20
16.7845
 30
0.0
 11
16.6192
 21
16.7845
 31
0.0
  0
LINE
  8
0
 62
     0
 10
16.6192
 20
16.7845
 30
0.0
 11
16.6192
 21
2.78364
 31
0.0
  0
LINE
  8
0
 62
     0
 10
16.6192
 20
2.78364
 30
0.0
 11
2.61965
 21
2.78364
 31
0.0
  0
LINE
  8
0
 62
     0
 10
2.61965
 20
2.78364
 30
0.0
 11
2.61965
 21
16.7845
 31
0.0
  0
LINE
  8
0
 62
     0
 10
21.6697
 20
16.7845
 30
0.0
 11
35.669
 21
16.7845
 31
0.0
  0
LINE
  8
0
 62
     0
 10
35.669
 20
16.7845
 30
0.0
 11
35.669
 21
2.78364
 31
0.0
  0
LINE
  8
0
 62
     0
 10
35.669
 20
2.78364
 30
0.0
 11
21.6697
 21
2.78364
 31
0.0
  0
LINE
  8
0
 62
     0
 10
21.6697
 20
2.78364
 30
0.0
 11
21.6697
 21
16.7845
 31
0.0
  0
LINE
  8
0
 62
     0
 10
47.8621
 20
16.7845
 30
0.0
 11
61.8628
 21
16.7845
 31
0.0
  0
LINE
  8
0
 62
     0
 10
61.8628
 20
16.7845
 30
0.0
 11
61.8628
 21
2.78364
 31
0.0
  0
LINE
  8
0
 62
     0
 10
61.8628
 20
2.78364
 30
0.0
 11
47.8621
 21
2.78364
 31
0.0
  0
LINE
  8
0
 62
     0
 10
47.8621
 20
2.78364
 30
0.0
 11
47.8621
 21
16.7845
 31
0.0
  0
LINE
  8
0
 62
     0
 10
71.676
 20
16.7845
 30
0.0
 11
85.6753
 21
16.7845
 31
0.0
  0
LINE
  8
0
 62
     0
 10
85.6753
 20
16.7845
 30
0.0
 11
85.6753
 21
2.78364
 31
0.0
  0
LINE
  8
0
 62
     0
 10
85.6753
 20
2.78364
 30
0.0
 11
71.676
 21
2.78364
 31
0.0
  0
LINE
  8
0
 62
     0
 10
71.676
 20
2.78364
 30
0.0
 11
71.676
 21
16.7845
 31
0.0
  0
LINE
  8
0
 62
     0
 10
95.4871
 20
16.7845
 30
0.0
 11
109.488
 21
16.7845
 31
0.0
  0
LINE
  8
0
 62
     0
 10
109.488
 20
16.7845
 30
0.0
 11
109.488
 21
2.78364
 31
0.0
  0
LINE
  8
0
 62
     0
 10
109.488
 20
2.78364
 30
0.0
 11
95.4871
 21
2.78364
 31
0.0
  0
LINE
  8
0
 62
     0
 10
95.4871
 20
2.78364
 30
0.0
 11
95.4871
 21
16.7845
 31
0.0
  0
LINE
  8
0
 62
     0
 10
155.02
 20
16.7845
 30
0.0
 11
169.019
 21
16.7845
 31
0.0
  0
LINE
  8
0
 62
     0
 10
169.019
 20
16.7845
 30
0.0
 11
169.019
 21
2.78364
 31
0.0
  0
LINE
  8
0
 62
     0
 10
169.019
 20
2.78364
 30
0.0
 11
155.02
 21
2.78364
 31
0.0
  0
LINE
  8
0
 62
     0
 10
155.02
 20
2.78364
 30
0.0
 11
155.02
 21
16.7845
 31
0.0
  0
LINE
  8
0
 62
     0
 10
285.987
 20
16.7845
 30
0.0
 11
299.988
 21
16.7845
 31
0.0
  0
LINE
  8
0
 62
     0
 10
299.988
 20
16.7845
 30
0.0
 11
299.988
 21
2.78364
 31
0.0
  0
LINE
  8
0
 62
     0
 10
299.988
 20
2.78364
 30
0.0
 11
285.987
 21
2.78364
 31
0.0
  0
LINE
  8
0
 62
     0
 10
285.987
 20
2.78364
 30
0.0
 11
285.987
 21
16.7845
 31
0.0
  0
LINE
  8
0
 62
     0
 10
307.42
 20
16.7845
 30
0.0
 11
321.419
 21
16.7845
 31
0.0
  0
LINE
  8
0
 62
     0
 10
321.419
 20
16.7845
 30
0.0
 11
321.419
 21
2.78364
 31
0.0
  0
LINE
  8
0
 62
     0
 10
321.419
 20
2.78364
 30
0.0
 11
307.42
 21
2.78364
 31
0.0
  0
LINE
  8
0
 62
     0
 10
307.42
 20
2.78364
 30
0.0
 11
307.42
 21
16.7845
 31
0.0
  0
LINE
  8
0
 62
     0
 10
328.851
 20
16.7845
 30
0.0
 11
342.85
 21
16.7845
 31
0.0
  0
LINE
  8
0
 62
     0
 10
342.85
 20
16.7845
 30
0.0
 11
342.85
 21
2.78364
 31
0.0
  0
LINE
  8
0
 62
     0
 10
342.85
 20
2.78364
 30
0.0
 11
328.851
 21
2.78364
 31
0.0
  0
LINE
  8
0
 62
     0
 10
328.851
 20
2.78364
 30
0.0
 11
328.851
 21
16.7845
 31
0.0
  0
LINE
  8
0
 62
     0
 10
350.282
 20
16.7845
 30
0.0
 11
364.282
 21
16.7845
 31
0.0
  0
LINE
  8
0
 62
     0
 10
364.282
 20
16.7845
 30
0.0
 11
364.282
 21
2.78364
 31
0.0
  0
LINE
  8
0
 62
     0
 10
364.282
 20
2.78364
 30
0.0
 11
350.282
 21
2.78364
 31
0.0
  0
LINE
  8
0
 62
     0
 10
350.282
 20
2.78364
 30
0.0
 11
350.282
 21
16.7845
 31
0.0
  0
LINE
  8
0
 62
     0
 10
369.334
 20
16.7845
 30
0.0
 11
383.332
 21
16.7845
 31
0.0
  0
LINE
  8
0
 62
     0
 10
383.332
 20
16.7845
 30
0.0
 11
383.332
 21
2.78364
 31
0.0
  0
LINE
  8
0
 62
     0
 10
383.332
 20
2.78364
 30
0.0
 11
369.334
 21
2.78364
 31
0.0
  0
LINE
  8
0
 62
     0
 10
369.334
 20
2.78364
 30
0.0
 11
369.334
 21
16.7845
 31
0.0
  0
LINE
  8
0
 62
     0
 10
388.384
 20
16.7845
 30
0.0
 11
402.382
 21
16.7845
 31
0.0
  0
LINE
  8
0
 62
     0
 10
402.382
 20
16.7845
 30
0.0
 11
402.382
 21
2.78364
 31
0.0
  0
LINE
  8
0
 62
     0
 10
402.382
 20
2.78364
 30
0.0
 11
388.384
 21
2.78364
 31
0.0
  0
LINE
  8
0
 62
     0
 10
388.384
 20
2.78364
 30
0.0
 11
388.384
 21
16.7845
 31
0.0
  0
LINE
  8
0
 62
     0
 10
57.3871
 20
35.833
 30
0.0
 11
57.3871
 21
31.1326
 31
0.0
  0
LINE
  8
0
 62
     0
 10
57.3871
 20
31.1326
 30
0.0
 11
55.8631
 21
31.1326
 31
0.0
  0
LINE
  8
0
 62
     0
 10
55.8631
 20
31.1326
 30
0.0
 11
55.8631
 21
34.3628
 31
0.0
  0
LINE
  8
0
 62
     0
 10
55.8631
 20
34.3628
 30
0.0
 11
49.112
 21
34.3628
 31
0.0
  0
LINE
  8
0
 62
     0
 10
49.112
 20
34.3628
 30
0.0
 11
49.112
 21
31.1326
 31
0.0
  0
LINE
  8
0
 62
     0
 10
49.112
 20
31.1326
 30
0.0
 11
48.2879
 21
31.1326
 31
0.0
  0
LINE
  8
0
 62
     0
 10
48.2879
 20
31.1326
 30
0.0
 11
48.2879
 21
28.3338
 31
0.0
  0
LINE
  8
0
 62
     0
 10
48.2879
 20
28.3338
 30
0.0
 11
49.112
 21
28.3338
 31
0.0
  0
LINE
  8
0
 62
     0
 10
49.112
 20
28.3338
 30
0.0
 11
49.112
 21
22.0638
 31
0.0
  0
LINE
  8
0
 62
     0
 10
49.112
 20
22.0638
 30
0.0
 11
50.837
 21
22.0638
 31
0.0
  0
LINE
  8
0
 62
     0
 10
50.837
 20
22.0638
 30
0.0
 11
50.837
 21
20.8635
 31
0.0
  0
LINE
  8
0
 62
     0
 10
50.837
 20
20.8635
 30
0.0
 11
54.1376
 21
20.8635
 31
0.0
  0
LINE
  8
0
 62
     0
 10
54.1376
 20
20.8635
 30
0.0
 11
54.1376
 21
22.0638
 31
0.0
  0
LINE
  8
0
 62
     0
 10
54.1376
 20
22.0638
 30
0.0
 11
55.8631
 21
22.0638
 31
0.0
  0
LINE
  8
0
 62
     0
 10
55.8631
 20
22.0638
 30
0.0
 11
55.8631
 21
26.5341
 31
0.0
  0
LINE
  8
0
 62
     0
 10
55.8631
 20
26.5341
 30
0.0
 11
57.3871
 21
26.5341
 31
0.0
  0
LINE
  8
0
 62
     0
 10
57.3871
 20
26.5341
 30
0.0
 11
57.3871
 21
21.8336
 31
0.0
  0
LINE
  8
0
 62
     0
 10
57.3871
 20
21.8336
 30
0.0
 11
71.3878
 21
21.8336
 31
0.0
  0
LINE
  8
0
 62
     0
 10
71.3878
 20
21.8336
 30
0.0
 11
71.3878
 21
26.5341
 31
0.0
  0
LINE
  8
0
 62
     0
 10
71.3878
 20
26.5341
 30
0.0
 11
72.9121
 21
26.5341
 31
0.0
  0
LINE
  8
0
 62
     0
 10
72.9121
 20
26.5341
 30
0.0
 11
72.9121
 21
22.0638
 31
0.0
  0
LINE
  8
0
 62
     0
 10
72.9121
 20
22.0638
 30
0.0
 11
74.6372
 21
22.0638
 31
0.0
  0
LINE
  8
0
 62
     0
 10
74.6372
 20
22.0638
 30
0.0
 11
74.6372
 21
20.8635
 31
0.0
  0
LINE
  8
0
 62
     0
 10
74.6372
 20
20.8635
 30
0.0
 11
77.9378
 21
20.8635
 31
0.0
  0
LINE
  8
0
 62
     0
 10
77.9378
 20
20.8635
 30
0.0
 11
77.9378
 21
22.0638
 31
0.0
  0
LINE
  8
0
 62
     0
 10
77.9378
 20
22.0638
 30
0.0
 11
79.6629
 21
22.0638
 31
0.0
  0
LINE
  8
0
 62
     0
 10
79.6629
 20
22.0638
 30
0.0
 11
79.6629
 21
28.3338
 31
0.0
  0
LINE
  8
0
 62
     0
 10
79.6629
 20
28.3338
 30
0.0
 11
80.487
 21
28.3338
 31
0.0
  0
LINE
  8
0
 62
     0
 10
80.487
 20
28.3338
 30
0.0
 11
80.487
 21
31.1326
 31
0.0
  0
LINE
  8
0
 62
     0
 10
80.487
 20
31.1326
 30
0.0
 11
79.6629
 21
31.1326
 31
0.0
  0
LINE
  8
0
 62
     0
 10
79.6629
 20
31.1326
 30
0.0
 11
79.6629
 21
34.3628
 31
0.0
  0
LINE
  8
0
 62
     0
 10
79.6629
 20
34.3628
 30
0.0
 11
72.9121
 21
34.3628
 31
0.0
  0
LINE
  8
0
 62
     0
 10
72.9121
 20
34.3628
 30
0.0
 11
72.9121
 21
31.1326
 31
0.0
  0
LINE
  8
0
 62
     0
 10
72.9121
 20
31.1326
 30
0.0
 11
71.3878
 21
31.1326
 31
0.0
  0
LINE
  8
0
 62
     0
 10
71.3878
 20
31.1326
 30
0.0
 11
71.3878
 21
35.833
 31
0.0
  0
LINE
  8
0
 62
     0
 10
71.3878
 20
35.833
 30
0.0
 11
57.3871
 21
35.833
 31
0.0
  0
LINE
  8
0
 62
     0
 10
2.61965
 20
35.833
 30
0.0
 11
16.6192
 21
35.833
 31
0.0
  0
LINE
  8
0
 62
     0
 10
16.6192
 20
35.833
 30
0.0
 11
16.6192
 21
21.8336
 31
0.0
  0
LINE
  8
0
 62
     0
 10
16.6192
 20
21.8336
 30
0.0
 11
2.61965
 21
21.8336
 31
0.0
  0
LINE
  8
0
 62
     0
 10
2.61965
 20
21.8336
 30
0.0
 11
2.61965
 21
35.833
 31
0.0
  0
LINE
  8
0
 62
     0
 10
21.6697
 20
35.833
 30
0.0
 11
35.669
 21
35.833
 31
0.0
  0
LINE
  8
0
 62
     0
 10
35.669
 20
35.833
 30
0.0
 11
35.669
 21
21.8336
 31
0.0
  0
LINE
  8
0
 62
     0
 10
35.669
 20
21.8336
 30
0.0
 11
21.6697
 21
21.8336
 31
0.0
  0
LINE
  8
0
 62
     0
 10
21.6697
 20
21.8336
 30
0.0
 11
21.6697
 21
35.833
 31
0.0
  0
LINE
  8
0
 62
     0
 10
88.3447
 20
35.833
 30
0.0
 11
102.344
 21
35.833
 31
0.0
  0
LINE
  8
0
 62
     0
 10
102.344
 20
35.833
 30
0.0
 11
102.344
 21
21.8336
 31
0.0
  0
LINE
  8
0
 62
     0
 10
102.344
 20
21.8336
 30
0.0
 11
88.3447
 21
21.8336
 31
0.0
  0
LINE
  8
0
 62
     0
 10
88.3447
 20
21.8336
 30
0.0
 11
88.3447
 21
35.833
 31
0.0
  0
LINE
  8
0
 62
     0
 10
107.395
 20
35.833
 30
0.0
 11
121.394
 21
35.833
 31
0.0
  0
LINE
  8
0
 62
     0
 10
121.394
 20
35.833
 30
0.0
 11
121.394
 21
21.8336
 31
0.0
  0
LINE
  8
0
 62
     0
 10
121.394
 20
21.8336
 30
0.0
 11
107.395
 21
21.8336
 31
0.0
  0
LINE
  8
0
 62
     0
 10
107.395
 20
21.8336
 30
0.0
 11
107.395
 21
35.833
 31
0.0
  0
LINE
  8
0
 62
     0
 10
126.445
 20
35.833
 30
0.0
 11
140.444
 21
35.833
 31
0.0
  0
LINE
  8
0
 62
     0
 10
140.444
 20
35.833
 30
0.0
 11
140.444
 21
21.8336
 31
0.0
  0
LINE
  8
0
 62
     0
 10
140.444
 20
21.8336
 30
0.0
 11
126.445
 21
21.8336
 31
0.0
  0
LINE
  8
0
 62
     0
 10
126.445
 20
21.8336
 30
0.0
 11
126.445
 21
35.833
 31
0.0
  0
LINE
  8
0
 62
     0
 10
145.495
 20
35.833
 30
0.0
 11
159.494
 21
35.833
 31
0.0
  0
LINE
  8
0
 62
     0
 10
159.494
 20
35.833
 30
0.0
 11
159.494
 21
21.8336
 31
0.0
  0
LINE
  8
0
 62
     0
 10
159.494
 20
21.8336
 30
0.0
 11
145.495
 21
21.8336
 31
0.0
  0
LINE
  8
0
 62
     0
 10
145.495
 20
21.8336
 30
0.0
 11
145.495
 21
35.833
 31
0.0
  0
LINE
  8
0
 62
     0
 10
164.545
 20
35.833
 30
0.0
 11
178.544
 21
35.833
 31
0.0
  0
LINE
  8
0
 62
     0
 10
178.544
 20
35.833
 30
0.0
 11
178.544
 21
21.8336
 31
0.0
  0
LINE
  8
0
 62
     0
 10
178.544
 20
21.8336
 30
0.0
 11
164.545
 21
21.8336
 31
0.0
  0
LINE
  8
0
 62
     0
 10
164.545
 20
21.8336
 30
0.0
 11
164.545
 21
35.833
 31
0.0
  0
LINE
  8
0
 62
     0
 10
240.745
 20
35.833
 30
0.0
 11
254.744
 21
35.833
 31
0.0
  0
LINE
  8
0
 62
     0
 10
254.744
 20
35.833
 30
0.0
 11
254.744
 21
21.8336
 31
0.0
  0
LINE
  8
0
 62
     0
 10
254.744
 20
21.8336
 30
0.0
 11
240.745
 21
21.8336
 31
0.0
  0
LINE
  8
0
 62
     0
 10
240.745
 20
21.8336
 30
0.0
 11
240.745
 21
35.833
 31
0.0
  0
LINE
  8
0
 62
     0
 10
259.795
 20
35.833
 30
0.0
 11
273.794
 21
35.833
 31
0.0
  0
LINE
  8
0
 62
     0
 10
273.794
 20
35.833
 30
0.0
 11
273.794
 21
21.8336
 31
0.0
  0
LINE
  8
0
 62
     0
 10
273.794
 20
21.8336
 30
0.0
 11
259.795
 21
21.8336
 31
0.0
  0
LINE
  8
0
 62
     0
 10
259.795
 20
21.8336
 30
0.0
 11
259.795
 21
35.833
 31
0.0
  0
LINE
  8
0
 62
     0
 10
278.845
 20
35.833
 30
0.0
 11
292.844
 21
35.833
 31
0.0
  0
LINE
  8
0
 62
     0
 10
292.844
 20
35.833
 30
0.0
 11
292.844
 21
21.8336
 31
0.0
  0
LINE
  8
0
 62
     0
 10
292.844
 20
21.8336
 30
0.0
 11
278.845
 21
21.8336
 31
0.0
  0
LINE
  8
0
 62
     0
 10
278.845
 20
21.8336
 30
0.0
 11
278.845
 21
35.833
 31
0.0
  0
LINE
  8
0
 62
     0
 10
297.895
 20
35.833
 30
0.0
 11
311.894
 21
35.833
 31
0.0
  0
LINE
  8
0
 62
     0
 10
311.894
 20
35.833
 30
0.0
 11
311.894
 21
21.8336
 31
0.0
  0
LINE
  8
0
 62
     0
 10
311.894
 20
21.8336
 30
0.0
 11
297.895
 21
21.8336
 31
0.0
  0
LINE
  8
0
 62
     0
 10
297.895
 20
21.8336
 30
0.0
 11
297.895
 21
35.833
 31
0.0
  0
LINE
  8
0
 62
     0
 10
316.945
 20
35.833
 30
0.0
 11
330.944
 21
35.833
 31
0.0
  0
LINE
  8
0
 62
     0
 10
330.944
 20
35.833
 30
0.0
 11
330.944
 21
21.8336
 31
0.0
  0
LINE
  8
0
 62
     0
 10
330.944
 20
21.8336
 30
0.0
 11
316.945
 21
21.8336
 31
0.0
  0
LINE
  8
0
 62
     0
 10
316.945
 20
21.8336
 30
0.0
 11
316.945
 21
35.833
 31
0.0
  0
LINE
  8
0
 62
     0
 10
343.137
 20
35.833
 30
0.0
 11
357.138
 21
35.833
 31
0.0
  0
LINE
  8
0
 62
     0
 10
357.138
 20
35.833
 30
0.0
 11
357.138
 21
21.8336
 31
0.0
  0
LINE
  8
0
 62
     0
 10
357.138
 20
21.8336
 30
0.0
 11
343.137
 21
21.8336
 31
0.0
  0
LINE
  8
0
 62
     0
 10
343.137
 20
21.8336
 30
0.0
 11
343.137
 21
35.833
 31
0.0
  0
LINE
  8
0
 62
     0
 10
369.334
 20
35.833
 30
0.0
 11
383.332
 21
35.833
 31
0.0
  0
LINE
  8
0
 62
     0
 10
383.332
 20
35.833
 30
0.0
 11
383.332
 21
21.8336
 31
0.0
  0
LINE
  8
0
 62
     0
 10
383.332
 20
21.8336
 30
0.0
 11
369.334
 21
21.8336
 31
0.0
  0
LINE
  8
0
 62
     0
 10
369.334
 20
21.8336
 30
0.0
 11
369.334
 21
35.833
 31
0.0
  0
LINE
  8
0
 62
     0
 10
388.384
 20
35.833
 30
0.0
 11
402.382
 21
35.833
 31
0.0
  0
LINE
  8
0
 62
     0
 10
402.382
 20
35.833
 30
0.0
 11
402.382
 21
21.8336
 31
0.0
  0
LINE
  8
0
 62
     0
 10
402.382
 20
21.8336
 30
0.0
 11
388.384
 21
21.8336
 31
0.0
  0
LINE
  8
0
 62
     0
 10
388.384
 20
21.8336
 30
0.0
 11
388.384
 21
35.833
 31
0.0
  0
LINE
  8
0
 62
     0
 10
357.427
 20
54.8831
 30
0.0
 11
357.427
 21
50.1826
 31
0.0
  0
LINE
  8
0
 62
     0
 10
357.427
 20
50.1826
 30
0.0
 11
355.9
 21
50.1826
 31
0.0
  0
LINE
  8
0
 62
     0
 10
355.9
 20
50.1826
 30
0.0
 11
355.9
 21
53.4127
 31
0.0
  0
LINE
  8
0
 62
     0
 10
355.9
 20
53.4127
 30
0.0
 11
349.151
 21
53.4127
 31
0.0
  0
LINE
  8
0
 62
     0
 10
349.151
 20
53.4127
 30
0.0
 11
349.151
 21
50.1826
 31
0.0
  0
LINE
  8
0
 62
     0
 10
349.151
 20
50.1826
 30
0.0
 11
348.325
 21
50.1826
 31
0.0
  0
LINE
  8
0
 62
     0
 10
348.325
 20
50.1826
 30
0.0
 11
348.325
 21
47.3837
 31
0.0
  0
LINE
  8
0
 62
     0
 10
348.325
 20
47.3837
 30
0.0
 11
349.151
 21
47.3837
 31
0.0
  0
LINE
  8
0
 62
     0
 10
349.151
 20
47.3837
 30
0.0
 11
349.151
 21
41.1138
 31
0.0
  0
LINE
  8
0
 62
     0
 10
349.151
 20
41.1138
 30
0.0
 11
350.876
 21
41.1138
 31
0.0
  0
LINE
  8
0
 62
     0
 10
350.876
 20
41.1138
 30
0.0
 11
350.876
 21
39.9136
 31
0.0
  0
LINE
  8
0
 62
     0
 10
350.876
 20
39.9136
 30
0.0
 11
354.175
 21
39.9136
 31
0.0
  0
LINE
  8
0
 62
     0
 10
354.175
 20
39.9136
 30
0.0
 11
354.175
 21
41.1138
 31
0.0
  0
LINE
  8
0
 62
     0
 10
354.175
 20
41.1138
 30
0.0
 11
355.9
 21
41.1138
 31
0.0
  0
LINE
  8
0
 62
     0
 10
355.9
 20
41.1138
 30
0.0
 11
355.9
 21
45.5828
 31
0.0
  0
LINE
  8
0
 62
     0
 10
355.9
 20
45.5828
 30
0.0
 11
357.427
 21
45.5828
 31
0.0
  0
LINE
  8
0
 62
     0
 10
357.427
 20
45.5828
 30
0.0
 11
357.427
 21
40.8838
 31
0.0
  0
LINE
  8
0
 62
     0
 10
357.427
 20
40.8838
 30
0.0
 11
371.426
 21
40.8838
 31
0.0
  0
LINE
  8
0
 62
     0
 10
371.426
 20
40.8838
 30
0.0
 11
371.426
 21
45.5828
 31
0.0
  0
LINE
  8
0
 62
     0
 10
371.426
 20
45.5828
 30
0.0
 11
372.95
 21
45.5828
 31
0.0
  0
LINE
  8
0
 62
     0
 10
372.95
 20
45.5828
 30
0.0
 11
372.95
 21
41.1138
 31
0.0
  0
LINE
  8
0
 62
     0
 10
372.95
 20
41.1138
 30
0.0
 11
374.675
 21
41.1138
 31
0.0
  0
LINE
  8
0
 62
     0
 10
374.675
 20
41.1138
 30
0.0
 11
374.675
 21
39.9136
 31
0.0
  0
LINE
  8
0
 62
     0
 10
374.675
 20
39.9136
 30
0.0
 11
377.977
 21
39.9136
 31
0.0
  0
LINE
  8
0
 62
     0
 10
377.977
 20
39.9136
 30
0.0
 11
377.977
 21
41.1138
 31
0.0
  0
LINE
  8
0
 62
     0
 10
377.977
 20
41.1138
 30
0.0
 11
379.702
 21
41.1138
 31
0.0
  0
LINE
  8
0
 62
     0
 10
379.702
 20
41.1138
 30
0.0
 11
379.702
 21
47.3837
 31
0.0
  0
LINE
  8
0
 62
     0
 10
379.702
 20
47.3837
 30
0.0
 11
380.527
 21
47.3837
 31
0.0
  0
LINE
  8
0
 62
     0
 10
380.527
 20
47.3837
 30
0.0
 11
380.527
 21
50.1826
 31
0.0
  0
LINE
  8
0
 62
     0
 10
380.527
 20
50.1826
 30
0.0
 11
379.702
 21
50.1826
 31
0.0
  0
LINE
  8
0
 62
     0
 10
379.702
 20
50.1826
 30
0.0
 11
379.702
 21
53.4127
 31
0.0
  0
LINE
  8
0
 62
     0
 10
379.702
 20
53.4127
 30
0.0
 11
372.95
 21
53.4127
 31
0.0
  0
LINE
  8
0
 62
     0
 10
372.95
 20
53.4127
 30
0.0
 11
372.95
 21
50.1826
 31
0.0
  0
LINE
  8
0
 62
     0
 10
372.95
 20
50.1826
 30
0.0
 11
371.426
 21
50.1826
 31
0.0
  0
LINE
  8
0
 62
     0
 10
371.426
 20
50.1826
 30
0.0
 11
371.426
 21
54.8831
 31
0.0
  0
LINE
  8
0
 62
     0
 10
371.426
 20
54.8831
 30
0.0
 11
357.427
 21
54.8831
 31
0.0
  0
LINE
  8
0
 62
     0
 10
2.61965
 20
54.8831
 30
0.0
 11
16.6192
 21
54.8831
 31
0.0
  0
LINE
  8
0
 62
     0
 10
16.6192
 20
54.8831
 30
0.0
 11
16.6192
 21
40.8838
 31
0.0
  0
LINE
  8
0
 62
     0
 10
16.6192
 20
40.8838
 30
0.0
 11
2.61965
 21
40.8838
 31
0.0
  0
LINE
  8
0
 62
     0
 10
2.61965
 20
40.8838
 30
0.0
 11
2.61965
 21
54.8831
 31
0.0
  0
LINE
  8
0
 62
     0
 10
21.6697
 20
54.8831
 30
0.0
 11
35.669
 21
54.8831
 31
0.0
  0
LINE
  8
0
 62
     0
 10
35.669
 20
54.8831
 30
0.0
 11
35.669
 21
40.8838
 31
0.0
  0
LINE
  8
0
 62
     0
 10
35.669
 20
40.8838
 30
0.0
 11
21.6697
 21
40.8838
 31
0.0
  0
LINE
  8
0
 62
     0
 10
21.6697
 20
40.8838
 30
0.0
 11
21.6697
 21
54.8831
 31
0.0
  0
LINE
  8
0
 62
     0
 10
52.626
 20
54.8831
 30
0.0
 11
66.6253
 21
54.8831
 31
0.0
  0
LINE
  8
0
 62
     0
 10
66.6253
 20
54.8831
 30
0.0
 11
66.6253
 21
40.8838
 31
0.0
  0
LINE
  8
0
 62
     0
 10
66.6253
 20
40.8838
 30
0.0
 11
52.626
 21
40.8838
 31
0.0
  0
LINE
  8
0
 62
     0
 10
52.626
 20
40.8838
 30
0.0
 11
52.626
 21
54.8831
 31
0.0
  0
LINE
  8
0
 62
     0
 10
78.8197
 20
54.8831
 30
0.0
 11
92.819
 21
54.8831
 31
0.0
  0
LINE
  8
0
 62
     0
 10
92.819
 20
54.8831
 30
0.0
 11
92.819
 21
40.8838
 31
0.0
  0
LINE
  8
0
 62
     0
 10
92.819
 20
40.8838
 30
0.0
 11
78.8197
 21
40.8838
 31
0.0
  0
LINE
  8
0
 62
     0
 10
78.8197
 20
40.8838
 30
0.0
 11
78.8197
 21
54.8831
 31
0.0
  0
LINE
  8
0
 62
     0
 10
97.8683
 20
54.8831
 30
0.0
 11
111.869
 21
54.8831
 31
0.0
  0
LINE
  8
0
 62
     0
 10
111.869
 20
54.8831
 30
0.0
 11
111.869
 21
40.8838
 31
0.0
  0
LINE
  8
0
 62
     0
 10
111.869
 20
40.8838
 30
0.0
 11
97.8683
 21
40.8838
 31
0.0
  0
LINE
  8
0
 62
     0
 10
97.8683
 20
40.8838
 30
0.0
 11
97.8683
 21
54.8831
 31
0.0
  0
LINE
  8
0
 62
     0
 10
116.918
 20
54.8831
 30
0.0
 11
130.919
 21
54.8831
 31
0.0
  0
LINE
  8
0
 62
     0
 10
130.919
 20
54.8831
 30
0.0
 11
130.919
 21
40.8838
 31
0.0
  0
LINE
  8
0
 62
     0
 10
130.919
 20
40.8838
 30
0.0
 11
116.918
 21
40.8838
 31
0.0
  0
LINE
  8
0
 62
     0
 10
116.918
 20
40.8838
 30
0.0
 11
116.918
 21
54.8831
 31
0.0
  0
LINE
  8
0
 62
     0
 10
135.97
 20
54.8831
 30
0.0
 11
149.969
 21
54.8831
 31
0.0
  0
LINE
  8
0
 62
     0
 10
149.969
 20
54.8831
 30
0.0
 11
149.969
 21
40.8838
 31
0.0
  0
LINE
  8
0
 62
     0
 10
149.969
 20
40.8838
 30
0.0
 11
135.97
 21
40.8838
 31
0.0
  0
LINE
  8
0
 62
     0
 10
135.97
 20
40.8838
 30
0.0
 11
135.97
 21
54.8831
 31
0.0
  0
LINE
  8
0
 62
     0
 10
155.02
 20
54.8831
 30
0.0
 11
169.019
 21
54.8831
 31
0.0
  0
LINE
  8
0
 62
     0
 10
169.019
 20
54.8831
 30
0.0
 11
169.019
 21
40.8838
 31
0.0
  0
LINE
  8
0
 62
     0
 10
169.019
 20
40.8838
 30
0.0
 11
155.02
 21
40.8838
 31
0.0
  0
LINE
  8
0
 62
     0
 10
155.02
 20
40.8838
 30
0.0
 11
155.02
 21
54.8831
 31
0.0
  0
LINE
  8
0
 62
     0
 10
231.22
 20
54.8831
 30
0.0
 11
245.219
 21
54.8831
 31
0.0
  0
LINE
  8
0
 62
     0
 10
245.219
 20
54.8831
 30
0.0
 11
245.219
 21
40.8838
 31
0.0
  0
LINE
  8
0
 62
     0
 10
245.219
 20
40.8838
 30
0.0
 11
231.22
 21
40.8838
 31
0.0
  0
LINE
  8
0
 62
     0
 10
231.22
 20
40.8838
 30
0.0
 11
231.22
 21
54.8831
 31
0.0
  0
LINE
  8
0
 62
     0
 10
250.27
 20
54.8831
 30
0.0
 11
264.269
 21
54.8831
 31
0.0
  0
LINE
  8
0
 62
     0
 10
264.269
 20
54.8831
 30
0.0
 11
264.269
 21
40.8838
 31
0.0
  0
LINE
  8
0
 62
     0
 10
264.269
 20
40.8838
 30
0.0
 11
250.27
 21
40.8838
 31
0.0
  0
LINE
  8
0
 62
     0
 10
250.27
 20
40.8838
 30
0.0
 11
250.27
 21
54.8831
 31
0.0
  0
LINE
  8
0
 62
     0
 10
269.32
 20
54.8831
 30
0.0
 11
283.319
 21
54.8831
 31
0.0
  0
LINE
  8
0
 62
     0
 10
283.319
 20
54.8831
 30
0.0
 11
283.319
 21
40.8838
 31
0.0
  0
LINE
  8
0
 62
     0
 10
283.319
 20
40.8838
 30
0.0
 11
269.32
 21
40.8838
 31
0.0
  0
LINE
  8
0
 62
     0
 10
269.32
 20
40.8838
 30
0.0
 11
269.32
 21
54.8831
 31
0.0
  0
LINE
  8
0
 62
     0
 10
288.37
 20
54.8831
 30
0.0
 11
302.369
 21
54.8831
 31
0.0
  0
LINE
  8
0
 62
     0
 10
302.369
 20
54.8831
 30
0.0
 11
302.369
 21
40.8838
 31
0.0
  0
LINE
  8
0
 62
     0
 10
302.369
 20
40.8838
 30
0.0
 11
288.37
 21
40.8838
 31
0.0
  0
LINE
  8
0
 62
     0
 10
288.37
 20
40.8838
 30
0.0
 11
288.37
 21
54.8831
 31
0.0
  0
LINE
  8
0
 62
     0
 10
307.42
 20
54.8831
 30
0.0
 11
321.419
 21
54.8831
 31
0.0
  0
LINE
  8
0
 62
     0
 10
321.419
 20
54.8831
 30
0.0
 11
321.419
 21
40.8838
 31
0.0
  0
LINE
  8
0
 62
     0
 10
321.419
 20
40.8838
 30
0.0
 11
307.42
 21
40.8838
 31
0.0
  0
LINE
  8
0
 62
     0
 10
307.42
 20
40.8838
 30
0.0
 11
307.42
 21
54.8831
 31
0.0
  0
LINE
  8
0
 62
     0
 10
326.47
 20
54.8831
 30
0.0
 11
340.469
 21
54.8831
 31
0.0
  0
LINE
  8
0
 62
     0
 10
340.469
 20
54.8831
 30
0.0
 11
340.469
 21
40.8838
 31
0.0
  0
LINE
  8
0
 62
     0
 10
340.469
 20
40.8838
 30
0.0
 11
326.47
 21
40.8838
 31
0.0
  0
LINE
  8
0
 62
     0
 10
326.47
 20
40.8838
 30
0.0
 11
326.47
 21
54.8831
 31
0.0
  0
LINE
  8
0
 62
     0
 10
388.384
 20
54.8831
 30
0.0
 11
402.382
 21
54.8831
 31
0.0
  0
LINE
  8
0
 62
     0
 10
402.382
 20
54.8831
 30
0.0
 11
402.382
 21
40.8838
 31
0.0
  0
LINE
  8
0
 62
     0
 10
402.382
 20
40.8838
 30
0.0
 11
388.384
 21
40.8838
 31
0.0
  0
LINE
  8
0
 62
     0
 10
388.384
 20
40.8838
 30
0.0
 11
388.384
 21
54.8831
 31
0.0
  0
LINE
  8
0
 62
     0
 10
2.61965
 20
73.9331
 30
0.0
 11
16.6192
 21
73.9331
 31
0.0
  0
LINE
  8
0
 62
     0
 10
16.6192
 20
73.9331
 30
0.0
 11
16.6192
 21
59.9338
 31
0.0
  0
LINE
  8
0
 62
     0
 10
16.6192
 20
59.9338
 30
0.0
 11
2.61965
 21
59.9338
 31
0.0
  0
LINE
  8
0
 62
     0
 10
2.61965
 20
59.9338
 30
0.0
 11
2.61965
 21
73.9331
 31
0.0
  0
LINE
  8
0
 62
     0
 10
21.6697
 20
73.9331
 30
0.0
 11
35.669
 21
73.9331
 31
0.0
  0
LINE
  8
0
 62
     0
 10
35.669
 20
73.9331
 30
0.0
 11
35.669
 21
59.9338
 31
0.0
  0
LINE
  8
0
 62
     0
 10
35.669
 20
59.9338
 30
0.0
 11
21.6697
 21
59.9338
 31
0.0
  0
LINE
  8
0
 62
     0
 10
21.6697
 20
59.9338
 30
0.0
 11
21.6697
 21
73.9331
 31
0.0
  0
LINE
  8
0
 62
     0
 10
50.2447
 20
73.9331
 30
0.0
 11
64.244
 21
73.9331
 31
0.0
  0
LINE
  8
0
 62
     0
 10
64.244
 20
73.9331
 30
0.0
 11
64.244
 21
59.9338
 31
0.0
  0
LINE
  8
0
 62
     0
 10
64.244
 20
59.9338
 30
0.0
 11
50.2447
 21
59.9338
 31
0.0
  0
LINE
  8
0
 62
     0
 10
50.2447
 20
59.9338
 30
0.0
 11
50.2447
 21
73.9331
 31
0.0
  0
LINE
  8
0
 62
     0
 10
74.0572
 20
73.9331
 30
0.0
 11
88.0565
 21
73.9331
 31
0.0
  0
LINE
  8
0
 62
     0
 10
88.0565
 20
73.9331
 30
0.0
 11
88.0565
 21
59.9338
 31
0.0
  0
LINE
  8
0
 62
     0
 10
88.0565
 20
59.9338
 30
0.0
 11
74.0572
 21
59.9338
 31
0.0
  0
LINE
  8
0
 62
     0
 10
74.0572
 20
59.9338
 30
0.0
 11
74.0572
 21
73.9331
 31
0.0
  0
LINE
  8
0
 62
     0
 10
93.1072
 20
73.9331
 30
0.0
 11
107.107
 21
73.9331
 31
0.0
  0
LINE
  8
0
 62
     0
 10
107.107
 20
73.9331
 30
0.0
 11
107.107
 21
59.9338
 31
0.0
  0
LINE
  8
0
 62
     0
 10
107.107
 20
59.9338
 30
0.0
 11
93.1072
 21
59.9338
 31
0.0
  0
LINE
  8
0
 62
     0
 10
93.1072
 20
59.9338
 30
0.0
 11
93.1072
 21
73.9331
 31
0.0
  0
LINE
  8
0
 62
     0
 10
112.157
 20
73.9331
 30
0.0
 11
126.157
 21
73.9331
 31
0.0
  0
LINE
  8
0
 62
     0
 10
126.157
 20
73.9331
 30
0.0
 11
126.157
 21
59.9338
 31
0.0
  0
LINE
  8
0
 62
     0
 10
126.157
 20
59.9338
 30
0.0
 11
112.157
 21
59.9338
 31
0.0
  0
LINE
  8
0
 62
     0
 10
112.157
 20
59.9338
 30
0.0
 11
112.157
 21
73.9331
 31
0.0
  0
LINE
  8
0
 62
     0
 10
131.207
 20
73.9331
 30
0.0
 11
145.207
 21
73.9331
 31
0.0
  0
LINE
  8
0
 62
     0
 10
145.207
 20
73.9331
 30
0.0
 11
145.207
 21
59.9338
 31
0.0
  0
LINE
  8
0
 62
     0
 10
145.207
 20
59.9338
 30
0.0
 11
131.207
 21
59.9338
 31
0.0
  0
LINE
  8
0
 62
     0
 10
131.207
 20
59.9338
 30
0.0
 11
131.207
 21
73.9331
 31
0.0
  0
LINE
  8
0
 62
     0
 10
150.257
 20
73.9331
 30
0.0
 11
164.257
 21
73.9331
 31
0.0
  0
LINE
  8
0
 62
     0
 10
164.257
 20
73.9331
 30
0.0
 11
164.257
 21
59.9338
 31
0.0
  0
LINE
  8
0
 62
     0
 10
164.257
 20
59.9338
 30
0.0
 11
150.257
 21
59.9338
 31
0.0
  0
LINE
  8
0
 62
     0
 10
150.257
 20
59.9338
 30
0.0
 11
150.257
 21
73.9331
 31
0.0
  0
LINE
  8
0
 62
     0
 10
226.457
 20
73.9331
 30
0.0
 11
240.457
 21
73.9331
 31
0.0
  0
LINE
  8
0
 62
     0
 10
240.457
 20
73.9331
 30
0.0
 11
240.457
 21
59.9338
 31
0.0
  0
LINE
  8
0
 62
     0
 10
240.457
 20
59.9338
 30
0.0
 11
226.457
 21
59.9338
 31
0.0
  0
LINE
  8
0
 62
     0
 10
226.457
 20
59.9338
 30
0.0
 11
226.457
 21
73.9331
 31
0.0
  0
LINE
  8
0
 62
     0
 10
245.507
 20
73.9331
 30
0.0
 11
259.507
 21
73.9331
 31
0.0
  0
LINE
  8
0
 62
     0
 10
259.507
 20
73.9331
 30
0.0
 11
259.507
 21
59.9338
 31
0.0
  0
LINE
  8
0
 62
     0
 10
259.507
 20
59.9338
 30
0.0
 11
245.507
 21
59.9338
 31
0.0
  0
LINE
  8
0
 62
     0
 10
245.507
 20
59.9338
 30
0.0
 11
245.507
 21
73.9331
 31
0.0
  0
LINE
  8
0
 62
     0
 10
264.557
 20
73.9331
 30
0.0
 11
278.557
 21
73.9331
 31
0.0
  0
LINE
  8
0
 62
     0
 10
278.557
 20
73.9331
 30
0.0
 11
278.557
 21
59.9338
 31
0.0
  0
LINE
  8
0
 62
     0
 10
278.557
 20
59.9338
 30
0.0
 11
264.557
 21
59.9338
 31
0.0
  0
LINE
  8
0
 62
     0
 10
264.557
 20
59.9338
 30
0.0
 11
264.557
 21
73.9331
 31
0.0
  0
LINE
  8
0
 62
     0
 10
283.607
 20
73.9331
 30
0.0
 11
297.607
 21
73.9331
 31
0.0
  0
LINE
  8
0
 62
     0
 10
297.607
 20
73.9331
 30
0.0
 11
297.607
 21
59.9338
 31
0.0
  0
LINE
  8
0
 62
     0
 10
297.607
 20
59.9338
 30
0.0
 11
283.607
 21
59.9338
 31
0.0
  0
LINE
  8
0
 62
     0
 10
283.607
 20
59.9338
 30
0.0
 11
283.607
 21
73.9331
 31
0.0
  0
LINE
  8
0
 62
     0
 10
302.657
 20
73.9331
 30
0.0
 11
316.657
 21
73.9331
 31
0.0
  0
LINE
  8
0
 62
     0
 10
316.657
 20
73.9331
 30
0.0
 11
316.657
 21
59.9338
 31
0.0
  0
LINE
  8
0
 62
     0
 10
316.657
 20
59.9338
 30
0.0
 11
302.657
 21
59.9338
 31
0.0
  0
LINE
  8
0
 62
     0
 10
302.657
 20
59.9338
 30
0.0
 11
302.657
 21
73.9331
 31
0.0
  0
LINE
  8
0
 62
     0
 10
321.707
 20
73.9331
 30
0.0
 11
335.707
 21
73.9331
 31
0.0
  0
LINE
  8
0
 62
     0
 10
335.707
 20
73.9331
 30
0.0
 11
335.707
 21
59.9338
 31
0.0
  0
LINE
  8
0
 62
     0
 10
335.707
 20
59.9338
 30
0.0
 11
321.707
 21
59.9338
 31
0.0
  0
LINE
  8
0
 62
     0
 10
321.707
 20
59.9338
 30
0.0
 11
321.707
 21
73.9331
 31
0.0
  0
LINE
  8
0
 62
     0
 10
340.757
 20
73.9331
 30
0.0
 11
354.757
 21
73.9331
 31
0.0
  0
LINE
  8
0
 62
     0
 10
354.757
 20
73.9331
 30
0.0
 11
354.757
 21
59.9338
 31
0.0
  0
LINE
  8
0
 62
     0
 10
354.757
 20
59.9338
 30
0.0
 11
340.757
 21
59.9338
 31
0.0
  0
LINE
  8
0
 62
     0
 10
340.757
 20
59.9338
 30
0.0
 11
340.757
 21
73.9331
 31
0.0
  0
LINE
  8
0
 62
     0
 10
364.571
 20
73.9331
 30
0.0
 11
378.569
 21
73.9331
 31
0.0
  0
LINE
  8
0
 62
     0
 10
378.569
 20
73.9331
 30
0.0
 11
378.569
 21
59.9338
 31
0.0
  0
LINE
  8
0
 62
     0
 10
378.569
 20
59.9338
 30
0.0
 11
364.571
 21
59.9338
 31
0.0
  0
LINE
  8
0
 62
     0
 10
364.571
 20
59.9338
 30
0.0
 11
364.571
 21
73.9331
 31
0.0
  0
LINE
  8
0
 62
     0
 10
388.384
 20
73.9331
 30
0.0
 11
402.382
 21
73.9331
 31
0.0
  0
LINE
  8
0
 62
     0
 10
402.382
 20
73.9331
 30
0.0
 11
402.382
 21
59.9338
 31
0.0
  0
LINE
  8
0
 62
     0
 10
402.382
 20
59.9338
 30
0.0
 11
388.384
 21
59.9338
 31
0.0
  0
LINE
  8
0
 62
     0
 10
388.384
 20
59.9338
 30
0.0
 11
388.384
 21
73.9331
 31
0.0
  0
LINE
  8
0
 62
     0
 10
359.809
 20
92.9831
 30
0.0
 11
359.809
 21
88.2826
 31
0.0
  0
LINE
  8
0
 62
     0
 10
359.809
 20
88.2826
 30
0.0
 11
358.281
 21
88.2826
 31
0.0
  0
LINE
  8
0
 62
     0
 10
358.281
 20
88.2826
 30
0.0
 11
358.281
 21
91.5127
 31
0.0
  0
LINE
  8
0
 62
     0
 10
358.281
 20
91.5127
 30
0.0
 11
351.532
 21
91.5127
 31
0.0
  0
LINE
  8
0
 62
     0
 10
351.532
 20
91.5127
 30
0.0
 11
351.532
 21
88.2826
 31
0.0
  0
LINE
  8
0
 62
     0
 10
351.532
 20
88.2826
 30
0.0
 11
350.707
 21
88.2826
 31
0.0
  0
LINE
  8
0
 62
     0
 10
350.707
 20
88.2826
 30
0.0
 11
350.707
 21
85.4837
 31
0.0
  0
LINE
  8
0
 62
     0
 10
350.707
 20
85.4837
 30
0.0
 11
351.532
 21
85.4837
 31
0.0
  0
LINE
  8
0
 62
     0
 10
351.532
 20
85.4837
 30
0.0
 11
351.532
 21
79.2138
 31
0.0
  0
LINE
  8
0
 62
     0
 10
351.532
 20
79.2138
 30
0.0
 11
353.258
 21
79.2138
 31
0.0
  0
LINE
  8
0
 62
     0
 10
353.258
 20
79.2138
 30
0.0
 11
353.258
 21
78.0136
 31
0.0
  0
LINE
  8
0
 62
     0
 10
353.258
 20
78.0136
 30
0.0
 11
356.556
 21
78.0136
 31
0.0
  0
LINE
  8
0
 62
     0
 10
356.556
 20
78.0136
 30
0.0
 11
356.556
 21
79.2138
 31
0.0
  0
LINE
  8
0
 62
     0
 10
356.556
 20
79.2138
 30
0.0
 11
358.281
 21
79.2138
 31
0.0
  0
LINE
  8
0
 62
     0
 10
358.281
 20
79.2138
 30
0.0
 11
358.281
 21
83.6828
 31
0.0
  0
LINE
  8
0
 62
     0
 10
358.281
 20
83.6828
 30
0.0
 11
359.809
 21
83.6828
 31
0.0
  0
LINE
  8
0
 62
     0
 10
359.809
 20
83.6828
 30
0.0
 11
359.809
 21
78.9838
 31
0.0
  0
LINE
  8
0
 62
     0
 10
359.809
 20
78.9838
 30
0.0
 11
373.807
 21
78.9838
 31
0.0
  0
LINE
  8
0
 62
     0
 10
373.807
 20
78.9838
 30
0.0
 11
373.807
 21
83.6828
 31
0.0
  0
LINE
  8
0
 62
     0
 10
373.807
 20
83.6828
 30
0.0
 11
375.331
 21
83.6828
 31
0.0
  0
LINE
  8
0
 62
     0
 10
375.331
 20
83.6828
 30
0.0
 11
375.331
 21
79.2138
 31
0.0
  0
LINE
  8
0
 62
     0
 10
375.331
 20
79.2138
 30
0.0
 11
377.056
 21
79.2138
 31
0.0
  0
LINE
  8
0
 62
     0
 10
377.056
 20
79.2138
 30
0.0
 11
377.056
 21
78.0136
 31
0.0
  0
LINE
  8
0
 62
     0
 10
377.056
 20
78.0136
 30
0.0
 11
380.358
 21
78.0136
 31
0.0
  0
LINE
  8
0
 62
     0
 10
380.358
 20
78.0136
 30
0.0
 11
380.358
 21
79.2138
 31
0.0
  0
LINE
  8
0
 62
     0
 10
380.358
 20
79.2138
 30
0.0
 11
382.083
 21
79.2138
 31
0.0
  0
LINE
  8
0
 62
     0
 10
382.083
 20
79.2138
 30
0.0
 11
382.083
 21
85.4837
 31
0.0
  0
LINE
  8
0
 62
     0
 10
382.083
 20
85.4837
 30
0.0
 11
382.905
 21
85.4837
 31
0.0
  0
LINE
  8
0
 62
     0
 10
382.905
 20
85.4837
 30
0.0
 11
382.905
 21
88.2826
 31
0.0
  0
LINE
  8
0
 62
     0
 10
382.905
 20
88.2826
 30
0.0
 11
382.083
 21
88.2826
 31
0.0
  0
LINE
  8
0
 62
     0
 10
382.083
 20
88.2826
 30
0.0
 11
382.083
 21
91.5127
 31
0.0
  0
LINE
  8
0
 62
     0
 10
382.083
 20
91.5127
 30
0.0
 11
375.331
 21
91.5127
 31
0.0
  0
LINE
  8
0
 62
     0
 10
375.331
 20
91.5127
 30
0.0
 11
375.331
 21
88.2826
 31
0.0
  0
LINE
  8
0
 62
     0
 10
375.331
 20
88.2826
 30
0.0
 11
373.807
 21
88.2826
 31
0.0
  0
LINE
  8
0
 62
     0
 10
373.807
 20
88.2826
 30
0.0
 11
373.807
 21
92.9831
 31
0.0
  0
LINE
  8
0
 62
     0
 10
373.807
 20
92.9831
 30
0.0
 11
359.809
 21
92.9831
 31
0.0
  0
LINE
  8
0
 62
     0
 10
2.61965
 20
92.9831
 30
0.0
 11
16.6192
 21
92.9831
 31
0.0
  0
LINE
  8
0
 62
     0
 10
16.6192
 20
92.9831
 30
0.0
 11
16.6192
 21
78.9838
 31
0.0
  0
LINE
  8
0
 62
     0
 10
16.6192
 20
78.9838
 30
0.0
 11
2.61965
 21
78.9838
 31
0.0
  0
LINE
  8
0
 62
     0
 10
2.61965
 20
78.9838
 30
0.0
 11
2.61965
 21
92.9831
 31
0.0
  0
LINE
  8
0
 62
     0
 10
21.6697
 20
92.9831
 30
0.0
 11
35.669
 21
92.9831
 31
0.0
  0
LINE
  8
0
 62
     0
 10
35.669
 20
92.9831
 30
0.0
 11
35.669
 21
78.9838
 31
0.0
  0
LINE
  8
0
 62
     0
 10
35.669
 20
78.9838
 30
0.0
 11
21.6697
 21
78.9838
 31
0.0
  0
LINE
  8
0
 62
     0
 10
21.6697
 20
78.9838
 30
0.0
 11
21.6697
 21
92.9831
 31
0.0
  0
LINE
  8
0
 62
     0
 10
45.4822
 20
92.9831
 30
0.0
 11
59.4815
 21
92.9831
 31
0.0
  0
LINE
  8
0
 62
     0
 10
59.4815
 20
92.9831
 30
0.0
 11
59.4815
 21
78.9838
 31
0.0
  0
LINE
  8
0
 62
     0
 10
59.4815
 20
78.9838
 30
0.0
 11
45.4822
 21
78.9838
 31
0.0
  0
LINE
  8
0
 62
     0
 10
45.4822
 20
78.9838
 30
0.0
 11
45.4822
 21
92.9831
 31
0.0
  0
LINE
  8
0
 62
     0
 10
64.5322
 20
92.9831
 30
0.0
 11
78.5315
 21
92.9831
 31
0.0
  0
LINE
  8
0
 62
     0
 10
78.5315
 20
92.9831
 30
0.0
 11
78.5315
 21
78.9838
 31
0.0
  0
LINE
  8
0
 62
     0
 10
78.5315
 20
78.9838
 30
0.0
 11
64.5322
 21
78.9838
 31
0.0
  0
LINE
  8
0
 62
     0
 10
64.5322
 20
78.9838
 30
0.0
 11
64.5322
 21
92.9831
 31
0.0
  0
LINE
  8
0
 62
     0
 10
83.5822
 20
92.9831
 30
0.0
 11
97.5815
 21
92.9831
 31
0.0
  0
LINE
  8
0
 62
     0
 10
97.5815
 20
92.9831
 30
0.0
 11
97.5815
 21
78.9838
 31
0.0
  0
LINE
  8
0
 62
     0
 10
97.5815
 20
78.9838
 30
0.0
 11
83.5822
 21
78.9838
 31
0.0
  0
LINE
  8
0
 62
     0
 10
83.5822
 20
78.9838
 30
0.0
 11
83.5822
 21
92.9831
 31
0.0
  0
LINE
  8
0
 62
     0
 10
102.632
 20
92.9831
 30
0.0
 11
116.632
 21
92.9831
 31
0.0
  0
LINE
  8
0
 62
     0
 10
116.632
 20
92.9831
 30
0.0
 11
116.632
 21
78.9838
 31
0.0
  0
LINE
  8
0
 62
     0
 10
116.632
 20
78.9838
 30
0.0
 11
102.632
 21
78.9838
 31
0.0
  0
LINE
  8
0
 62
     0
 10
102.632
 20
78.9838
 30
0.0
 11
102.632
 21
92.9831
 31
0.0
  0
LINE
  8
0
 62
     0
 10
121.682
 20
92.9831
 30
0.0
 11
135.682
 21
92.9831
 31
0.0
  0
LINE
  8
0
 62
     0
 10
135.682
 20
92.9831
 30
0.0
 11
135.682
 21
78.9838
 31
0.0
  0
LINE
  8
0
 62
     0
 10
135.682
 20
78.9838
 30
0.0
 11
121.682
 21
78.9838
 31
0.0
  0
LINE
  8
0
 62
     0
 10
121.682
 20
78.9838
 30
0.0
 11
121.682
 21
92.9831
 31
0.0
  0
LINE
  8
0
 62
     0
 10
140.732
 20
92.9831
 30
0.0
 11
154.732
 21
92.9831
 31
0.0
  0
LINE
  8
0
 62
     0
 10
154.732
 20
92.9831
 30
0.0
 11
154.732
 21
78.9838
 31
0.0
  0
LINE
  8
0
 62
     0
 10
154.732
 20
78.9838
 30
0.0
 11
140.732
 21
78.9838
 31
0.0
  0
LINE
  8
0
 62
     0
 10
140.732
 20
78.9838
 30
0.0
 11
140.732
 21
92.9831
 31
0.0
  0
LINE
  8
0
 62
     0
 10
159.782
 20
92.9831
 30
0.0
 11
173.782
 21
92.9831
 31
0.0
  0
LINE
  8
0
 62
     0
 10
173.782
 20
92.9831
 30
0.0
 11
173.782
 21
78.9838
 31
0.0
  0
LINE
  8
0
 62
     0
 10
173.782
 20
78.9838
 30
0.0
 11
159.782
 21
78.9838
 31
0.0
  0
LINE
  8
0
 62
     0
 10
159.782
 20
78.9838
 30
0.0
 11
159.782
 21
92.9831
 31
0.0
  0
LINE
  8
0
 62
     0
 10
235.982
 20
92.9831
 30
0.0
 11
249.982
 21
92.9831
 31
0.0
  0
LINE
  8
0
 62
     0
 10
249.982
 20
92.9831
 30
0.0
 11
249.982
 21
78.9838
 31
0.0
  0
LINE
  8
0
 62
     0
 10
249.982
 20
78.9838
 30
0.0
 11
235.982
 21
78.9838
 31
0.0
  0
LINE
  8
0
 62
     0
 10
235.982
 20
78.9838
 30
0.0
 11
235.982
 21
92.9831
 31
0.0
  0
LINE
  8
0
 62
     0
 10
255.032
 20
92.9831
 30
0.0
 11
269.032
 21
92.9831
 31
0.0
  0
LINE
  8
0
 62
     0
 10
269.032
 20
92.9831
 30
0.0
 11
269.032
 21
78.9838
 31
0.0
  0
LINE
  8
0
 62
     0
 10
269.032
 20
78.9838
 30
0.0
 11
255.032
 21
78.9838
 31
0.0
  0
LINE
  8
0
 62
     0
 10
255.032
 20
78.9838
 30
0.0
 11
255.032
 21
92.9831
 31
0.0
  0
LINE
  8
0
 62
     0
 10
274.082
 20
92.9831
 30
0.0
 11
288.082
 21
92.9831
 31
0.0
  0
LINE
  8
0
 62
     0
 10
288.082
 20
92.9831
 30
0.0
 11
288.082
 21
78.9838
 31
0.0
  0
LINE
  8
0
 62
     0
 10
288.082
 20
78.9838
 30
0.0
 11
274.082
 21
78.9838
 31
0.0
  0
LINE
  8
0
 62
     0
 10
274.082
 20
78.9838
 30
0.0
 11
274.082
 21
92.9831
 31
0.0
  0
LINE
  8
0
 62
     0
 10
293.132
 20
92.9831
 30
0.0
 11
307.132
 21
92.9831
 31
0.0
  0
LINE
  8
0
 62
     0
 10
307.132
 20
92.9831
 30
0.0
 11
307.132
 21
78.9838
 31
0.0
  0
LINE
  8
0
 62
     0
 10
307.132
 20
78.9838
 30
0.0
 11
293.132
 21
78.9838
 31
0.0
  0
LINE
  8
0
 62
     0
 10
293.132
 20
78.9838
 30
0.0
 11
293.132
 21
92.9831
 31
0.0
  0
LINE
  8
0
 62
     0
 10
312.182
 20
92.9831
 30
0.0
 11
326.182
 21
92.9831
 31
0.0
  0
LINE
  8
0
 62
     0
 10
326.182
 20
92.9831
 30
0.0
 11
326.182
 21
78.9838
 31
0.0
  0
LINE
  8
0
 62
     0
 10
326.182
 20
78.9838
 30
0.0
 11
312.182
 21
78.9838
 31
0.0
  0
LINE
  8
0
 62
     0
 10
312.182
 20
78.9838
 30
0.0
 11
312.182
 21
92.9831
 31
0.0
  0
LINE
  8
0
 62
     0
 10
331.232
 20
92.9831
 30
0.0
 11
345.232
 21
92.9831
 31
0.0
  0
LINE
  8
0
 62
     0
 10
345.232
 20
92.9831
 30
0.0
 11
345.232
 21
78.9838
 31
0.0
  0
LINE
  8
0
 62
     0
 10
345.232
 20
78.9838
 30
0.0
 11
331.232
 21
78.9838
 31
0.0
  0
LINE
  8
0
 62
     0
 10
331.232
 20
78.9838
 30
0.0
 11
331.232
 21
92.9831
 31
0.0
  0
LINE
  8
0
 62
     0
 10
388.384
 20
92.9831
 30
0.0
 11
402.382
 21
92.9831
 31
0.0
  0
LINE
  8
0
 62
     0
 10
402.382
 20
92.9831
 30
0.0
 11
402.382
 21
78.9838
 31
0.0
  0
LINE
  8
0
 62
     0
 10
402.382
 20
78.9838
 30
0.0
 11
388.384
 21
78.9838
 31
0.0
  0
LINE
  8
0
 62
     0
 10
388.384
 20
78.9838
 30
0.0
 11
388.384
 21
92.9831
 31
0.0
  0
LINE
  8
0
 62
     0
 10
45.4822
 20
112.033
 30
0.0
 11
59.4815
 21
112.033
 31
0.0
  0
LINE
  8
0
 62
     0
 10
59.4815
 20
112.033
 30
0.0
 11
59.4815
 21
98.0338
 31
0.0
  0
LINE
  8
0
 62
     0
 10
59.4815
 20
98.0338
 30
0.0
 11
45.4822
 21
98.0338
 31
0.0
  0
LINE
  8
0
 62
     0
 10
45.4822
 20
98.0338
 30
0.0
 11
45.4822
 21
112.033
 31
0.0
  0
LINE
  8
0
 62
     0
 10
64.5322
 20
112.033
 30
0.0
 11
78.5315
 21
112.033
 31
0.0
  0
LINE
  8
0
 62
     0
 10
78.5315
 20
112.033
 30
0.0
 11
78.5315
 21
98.0338
 31
0.0
  0
LINE
  8
0
 62
     0
 10
78.5315
 20
98.0338
 30
0.0
 11
64.5322
 21
98.0338
 31
0.0
  0
LINE
  8
0
 62
     0
 10
64.5322
 20
98.0338
 30
0.0
 11
64.5322
 21
112.033
 31
0.0
  0
LINE
  8
0
 62
     0
 10
83.5822
 20
112.033
 30
0.0
 11
97.5815
 21
112.033
 31
0.0
  0
LINE
  8
0
 62
     0
 10
97.5815
 20
112.033
 30
0.0
 11
97.5815
 21
98.0338
 31
0.0
  0
LINE
  8
0
 62
     0
 10
97.5815
 20
98.0338
 30
0.0
 11
83.5822
 21
98.0338
 31
0.0
  0
LINE
  8
0
 62
     0
 10
83.5822
 20
98.0338
 30
0.0
 11
83.5822
 21
112.033
 31
0.0
  0
LINE
  8
0
 62
     0
 10
102.632
 20
112.033
 30
0.0
 11
116.632
 21
112.033
 31
0.0
  0
LINE
  8
0
 62
     0
 10
116.632
 20
112.033
 30
0.0
 11
116.632
 21
98.0338
 31
0.0
  0
LINE
  8
0
 62
     0
 10
116.632
 20
98.0338
 30
0.0
 11
102.632
 21
98.0338
 31
0.0
  0
LINE
  8
0
 62
     0
 10
102.632
 20
98.0338
 30
0.0
 11
102.632
 21
112.033
 31
0.0
  0
LINE
  8
0
 62
     0
 10
121.682
 20
112.033
 30
0.0
 11
135.682
 21
112.033
 31
0.0
  0
LINE
  8
0
 62
     0
 10
135.682
 20
112.033
 30
0.0
 11
135.682
 21
98.0338
 31
0.0
  0
LINE
  8
0
 62
     0
 10
135.682
 20
98.0338
 30
0.0
 11
121.682
 21
98.0338
 31
0.0
  0
LINE
  8
0
 62
     0
 10
121.682
 20
98.0338
 30
0.0
 11
121.682
 21
112.033
 31
0.0
  0
LINE
  8
0
 62
     0
 10
140.732
 20
112.033
 30
0.0
 11
154.732
 21
112.033
 31
0.0
  0
LINE
  8
0
 62
     0
 10
154.732
 20
112.033
 30
0.0
 11
154.732
 21
98.0338
 31
0.0
  0
LINE
  8
0
 62
     0
 10
154.732
 20
98.0338
 30
0.0
 11
140.732
 21
98.0338
 31
0.0
  0
LINE
  8
0
 62
     0
 10
140.732
 20
98.0338
 30
0.0
 11
140.732
 21
112.033
 31
0.0
  0
LINE
  8
0
 62
     0
 10
159.782
 20
112.033
 30
0.0
 11
173.782
 21
112.033
 31
0.0
  0
LINE
  8
0
 62
     0
 10
173.782
 20
112.033
 30
0.0
 11
173.782
 21
98.0338
 31
0.0
  0
LINE
  8
0
 62
     0
 10
173.782
 20
98.0338
 30
0.0
 11
159.782
 21
98.0338
 31
0.0
  0
LINE
  8
0
 62
     0
 10
159.782
 20
98.0338
 30
0.0
 11
159.782
 21
112.033
 31
0.0
  0
LINE
  8
0
 62
     0
 10
235.982
 20
112.033
 30
0.0
 11
249.982
 21
112.033
 31
0.0
  0
LINE
  8
0
 62
     0
 10
249.982
 20
112.033
 30
0.0
 11
249.982
 21
98.0338
 31
0.0
  0
LINE
  8
0
 62
     0
 10
249.982
 20
98.0338
 30
0.0
 11
235.982
 21
98.0338
 31
0.0
  0
LINE
  8
0
 62
     0
 10
235.982
 20
98.0338
 30
0.0
 11
235.982
 21
112.033
 31
0.0
  0
LINE
  8
0
 62
     0
 10
255.032
 20
112.033
 30
0.0
 11
269.032
 21
112.033
 31
0.0
  0
LINE
  8
0
 62
     0
 10
269.032
 20
112.033
 30
0.0
 11
269.032
 21
98.0338
 31
0.0
  0
LINE
  8
0
 62
     0
 10
269.032
 20
98.0338
 30
0.0
 11
255.032
 21
98.0338
 31
0.0
  0
LINE
  8
0
 62
     0
 10
255.032
 20
98.0338
 30
0.0
 11
255.032
 21
112.033
 31
0.0
  0
LINE
  8
0
 62
     0
 10
274.082
 20
112.033
 30
0.0
 11
288.082
 21
112.033
 31
0.0
  0
LINE
  8
0
 62
     0
 10
288.082
 20
112.033
 30
0.0
 11
288.082
 21
98.0338
 31
0.0
  0
LINE
  8
0
 62
     0
 10
288.082
 20
98.0338
 30
0.0
 11
274.082
 21
98.0338
 31
0.0
  0
LINE
  8
0
 62
     0
 10
274.082
 20
98.0338
 30
0.0
 11
274.082
 21
112.033
 31
0.0
  0
LINE
  8
0
 62
     0
 10
293.132
 20
112.033
 30
0.0
 11
307.132
 21
112.033
 31
0.0
  0
LINE
  8
0
 62
     0
 10
307.132
 20
112.033
 30
0.0
 11
307.132
 21
98.0338
 31
0.0
  0
LINE
  8
0
 62
     0
 10
307.132
 20
98.0338
 30
0.0
 11
293.132
 21
98.0338
 31
0.0
  0
LINE
  8
0
 62
     0
 10
293.132
 20
98.0338
 30
0.0
 11
293.132
 21
112.033
 31
0.0
  0
LINE
  8
0
 62
     0
 10
312.182
 20
112.033
 30
0.0
 11
326.182
 21
112.033
 31
0.0
  0
LINE
  8
0
 62
     0
 10
326.182
 20
112.033
 30
0.0
 11
326.182
 21
98.0338
 31
0.0
  0
LINE
  8
0
 62
     0
 10
326.182
 20
98.0338
 30
0.0
 11
312.182
 21
98.0338
 31
0.0
  0
LINE
  8
0
 62
     0
 10
312.182
 20
98.0338
 30
0.0
 11
312.182
 21
112.033
 31
0.0
  0
LINE
  8
0
 62
     0
 10
331.232
 20
112.033
 30
0.0
 11
345.232
 21
112.033
 31
0.0
  0
LINE
  8
0
 62
     0
 10
345.232
 20
112.033
 30
0.0
 11
345.232
 21
98.0338
 31
0.0
  0
LINE
  8
0
 62
     0
 10
345.232
 20
98.0338
 30
0.0
 11
331.232
 21
98.0338
 31
0.0
  0
LINE
  8
0
 62
     0
 10
331.232
 20
98.0338
 30
0.0
 11
331.232
 21
112.033
 31
0.0
  0
LINE
  8
0
 62
     0
 10
350.282
 20
112.033
 30
0.0
 11
364.282
 21
112.033
 31
0.0
  0
LINE
  8
0
 62
     0
 10
364.282
 20
112.033
 30
0.0
 11
364.282
 21
98.0338
 31
0.0
  0
LINE
  8
0
 62
     0
 10
364.282
 20
98.0338
 30
0.0
 11
350.282
 21
98.0338
 31
0.0
  0
LINE
  8
0
 62
     0
 10
350.282
 20
98.0338
 30
0.0
 11
350.282
 21
112.033
 31
0.0
  0
LINE
  8
0
 62
     0
 10
369.334
 20
112.033
 30
0.0
 11
383.332
 21
112.033
 31
0.0
  0
LINE
  8
0
 62
     0
 10
383.332
 20
112.033
 30
0.0
 11
383.332
 21
98.0338
 31
0.0
  0
LINE
  8
0
 62
     0
 10
383.332
 20
98.0338
 30
0.0
 11
369.334
 21
98.0338
 31
0.0
  0
LINE
  8
0
 62
     0
 10
369.334
 20
98.0338
 30
0.0
 11
369.334
 21
112.033
 31
0.0
  0
LINE
  8
0
 62
     0
 10
388.384
 20
112.033
 30
0.0
 11
402.382
 21
112.033
 31
0.0
  0
LINE
  8
0
 62
     0
 10
402.382
 20
112.033
 30
0.0
 11
402.382
 21
98.0338
 31
0.0
  0
LINE
  8
0
 62
     0
 10
402.382
 20
98.0338
 30
0.0
 11
388.384
 21
98.0338
 31
0.0
  0
LINE
  8
0
 62
     0
 10
388.384
 20
98.0338
 30
0.0
 11
388.384
 21
112.033
 31
0.0
  0
ENDSEC
  0
EOF
